<svg id="Layer_1" data-name="Layer 1" xmlns="http://www.w3.org/2000/svg" viewBox="0 0 147.51 147.78"><defs><style>.cls-1{fill:#f2e515;}.cls-2{fill:#6d398a;}.cls-3{fill:#e8621e;}.cls-4{fill:#1b97ba;}.cls-5{fill:#2971aa;}.cls-6{fill:#ee8e1e;}.cls-7{fill:#e32322;}.cls-8{fill:#8cba26;}.cls-9{fill:#f9f9f9;}</style></defs><title>favicon</title><path class="cls-1" d="M751.4,467.06s-46.65-25.8-17.24-73.89C734.16,393.17,782.76,417,751.4,467.06Z" transform="translate(-678.38 -393.17)"/><path class="cls-2" d="M768.64,541S722,515.15,751.4,467.06C751.4,467.06,800,490.88,768.64,541Z" transform="translate(-678.38 -393.17)"/><path class="cls-3" d="M752.27,468.46s25.1-47,73.62-18.34C825.89,450.12,802.79,499.08,752.27,468.46Z" transform="translate(-678.38 -393.17)"/><path class="cls-4" d="M678.38,485.71s25.1-47,73.63-18.35C752,467.36,728.91,516.32,678.38,485.71Z" transform="translate(-678.38 -393.17)"/><path class="cls-5" d="M706.14,527.7S696.2,475.33,752,467.24C752,467.24,764.7,519.86,706.14,527.7Z" transform="translate(-678.38 -393.17)"/><path class="cls-6" d="M752.16,468s-9.94-52.37,45.84-60.47C798,407.55,810.72,460.17,752.16,468Z" transform="translate(-678.38 -393.17)"/><path class="cls-7" d="M751.92,469s49.25-20.4,68.53,32.57C820.45,501.57,771.52,524.73,751.92,469Z" transform="translate(-678.38 -393.17)"/><path class="cls-8" d="M683.93,434.62s49.25-20.4,68.53,32.57C752.46,467.19,703.53,490.35,683.93,434.62Z" transform="translate(-678.38 -393.17)"/><circle class="cls-9" cx="74.33" cy="75.14" r="14.59"/></svg>